<?xml version="1.0" encoding="UTF-8" standalone="no"?>
<svg width="32" height="32" viewBox="0 0 32 32" xmlns="http://www.w3.org/2000/svg">
  <defs>
    <linearGradient id="brain-gradient" x1="0%" y1="0%" x2="0%" y2="100%">
      <stop offset="0%" style="stop-color:#1E88E5;stop-opacity:1" />
      <stop offset="100%" style="stop-color:#1976D2;stop-opacity:1" />
    </linearGradient>
  </defs>
  
  <!-- Brain outline -->
  <path d="M16,4 C10,4 5,9 5,16 C5,19 6,22 8,24 C9.5,25.5 11,26.5 13,27 C14,27.5 15,27.75 16,27.75 C17,27.75 18,27.5 19,27 C21,26.5 22.5,25.5 24,24 C26,22 27,19 27,16 C27,9 22,4 16,4 Z" fill="url(#brain-gradient)" />

  <!-- Left hemisphere division -->
  <path d="M16,4 C16,4 16,28 16,28" stroke="#B3E5FC" stroke-width="0.75" fill="none" />

  <!-- Circuit patterns - Left side -->
  <circle cx="9" cy="8" r="0.75" fill="#B3E5FC" />
  <path d="M9,8 L5,8" stroke="#B3E5FC" stroke-width="0.75" fill="none" />
  
  <circle cx="11" cy="12" r="0.75" fill="#B3E5FC" />
  <path d="M11,12 L5,12" stroke="#B3E5FC" stroke-width="0.75" fill="none" />
  
  <circle cx="8" cy="16" r="0.75" fill="#B3E5FC" />
  <path d="M8,16 L5,16" stroke="#B3E5FC" stroke-width="0.75" fill="none" />
  
  <circle cx="10" cy="20" r="0.75" fill="#B3E5FC" />
  <path d="M10,20 L5,20" stroke="#B3E5FC" stroke-width="0.75" fill="none" />
  
  <circle cx="12" cy="24" r="0.75" fill="#B3E5FC" />
  <path d="M12,24 L12,20 L10,20" stroke="#B3E5FC" stroke-width="0.75" fill="none" />
  
  <circle cx="14" cy="18" r="0.75" fill="#B3E5FC" />
  <path d="M14,18 L14,24" stroke="#B3E5FC" stroke-width="0.75" fill="none" />
  
  <circle cx="9" cy="22" r="0.75" fill="#B3E5FC" />
  <path d="M9,22 L9,16 L8,16" stroke="#B3E5FC" stroke-width="0.75" fill="none" />

  <!-- Circuit patterns - Right side -->
  <circle cx="23" cy="8" r="0.75" fill="#B3E5FC" />
  <path d="M23,8 L27,8" stroke="#B3E5FC" stroke-width="0.75" fill="none" />
  
  <circle cx="21" cy="12" r="0.75" fill="#B3E5FC" />
  <path d="M21,12 L27,12" stroke="#B3E5FC" stroke-width="0.75" fill="none" />
  
  <circle cx="24" cy="16" r="0.75" fill="#B3E5FC" />
  <path d="M24,16 L27,16" stroke="#B3E5FC" stroke-width="0.75" fill="none" />
  
  <circle cx="22" cy="20" r="0.75" fill="#B3E5FC" />
  <path d="M22,20 L27,20" stroke="#B3E5FC" stroke-width="0.75" fill="none" />
  
  <circle cx="20" cy="24" r="0.75" fill="#B3E5FC" />
  <path d="M20,24 L20,20 L22,20" stroke="#B3E5FC" stroke-width="0.75" fill="none" />
  
  <circle cx="18" cy="18" r="0.75" fill="#B3E5FC" />
  <path d="M18,18 L18,24" stroke="#B3E5FC" stroke-width="0.75" fill="none" />
  
  <circle cx="23" cy="22" r="0.75" fill="#B3E5FC" />
  <path d="M23,22 L23,16 L24,16" stroke="#B3E5FC" stroke-width="0.75" fill="none" />
  
  <!-- Binary Code (Digital/AI Element) -->
  <rect x="8" y="14" width="1" height="1" fill="#FFFFFF" fill-opacity="0.6" />
  <rect x="6" y="14" width="1" height="1" fill="#FFFFFF" fill-opacity="0.6" />
  <rect x="8" y="16" width="1" height="1" fill="#FFFFFF" fill-opacity="0.6" />
  <rect x="6" y="16" width="1" height="1" fill="#FFFFFF" fill-opacity="0.6" />
  <rect x="8" y="18" width="1" height="1" fill="#FFFFFF" fill-opacity="0.6" />
  <rect x="6" y="18" width="1" height="1" fill="#FFFFFF" fill-opacity="0.6" />
</svg>
